<mxfile host="app.diagrams.net" modified="2024-06-08T08:04:19.172Z" agent="Mozilla/5.0 (Windows NT 10.0; Win64; x64) AppleWebKit/537.36 (KHTML, like Gecko) Chrome/125.0.0.0 Safari/537.36" version="24.5.2" etag="DNWbtztaq12W0dhGU4yi" type="github">
  <diagram name="Trang-1" id="Xx7NPdhr0SsSoQb__wKX">
    <mxGraphModel>
      <root>
        <mxCell id="0" />
        <mxCell id="1" parent="0" />
      </root>
    </mxGraphModel>
  </diagram>
</mxfile>
